<svg width="38" height="38" viewBox="0 0 38 38" fill="none" xmlns="http://www.w3.org/2000/svg">
<path d="M7.24371 7.24371C7.68909 6.79846 8.29307 6.54834 8.92283 6.54834C9.5526 6.54834 10.1566 6.79846 10.602 7.24371L19 15.6417L27.398 7.24371C27.8459 6.81108 28.4458 6.5717 29.0685 6.57711C29.6913 6.58252 30.2869 6.83229 30.7273 7.27264C31.1676 7.71298 31.4174 8.30866 31.4228 8.93138C31.4282 9.5541 31.1888 10.154 30.7562 10.602L22.3582 19L30.7562 27.398C31.1888 27.8459 31.4282 28.4458 31.4228 29.0685C31.4174 29.6913 31.1676 30.2869 30.7273 30.7273C30.2869 31.1676 29.6913 31.4174 29.0685 31.4228C28.4458 31.4282 27.8459 31.1888 27.398 30.7562L19 22.3582L10.602 30.7562C10.154 31.1888 9.5541 31.4282 8.93138 31.4228C8.30866 31.4174 7.71298 31.1676 7.27264 30.7273C6.83229 30.2869 6.58252 29.6913 6.57711 29.0685C6.5717 28.4458 6.81108 27.8459 7.24371 27.398L15.6417 19L7.24371 10.602C6.79846 10.1566 6.54834 9.5526 6.54834 8.92283C6.54834 8.29307 6.79846 7.68909 7.24371 7.24371Z" fill="black"/>
</svg>
